<mxfile host="app.diagrams.net" agent="Mozilla/5.0 (Windows NT 10.0; Win64; x64) AppleWebKit/537.36 (KHTML, like Gecko) Chrome/138.0.0.0 Safari/537.36" version="28.1.0">
  <diagram name="PaginÄƒ-1" id="v2ER4P42F0cW28TgSmz0">
    <mxGraphModel dx="3206" dy="1110" grid="1" gridSize="10" guides="1" tooltips="1" connect="1" arrows="1" fold="1" page="1" pageScale="1" pageWidth="827" pageHeight="1169" math="0" shadow="0">
      <root>
        <mxCell id="0" />
        <mxCell id="1" parent="0" />
        <mxCell id="S53oRHzwq9ecKeJivj_x-3" value="" style="edgeStyle=orthogonalEdgeStyle;rounded=0;orthogonalLoop=1;jettySize=auto;html=1;" edge="1" parent="1" target="S53oRHzwq9ecKeJivj_x-2">
          <mxGeometry relative="1" as="geometry">
            <mxPoint x="120" y="130" as="sourcePoint" />
          </mxGeometry>
        </mxCell>
        <mxCell id="S53oRHzwq9ecKeJivj_x-7" style="edgeStyle=orthogonalEdgeStyle;rounded=0;orthogonalLoop=1;jettySize=auto;html=1;exitX=1;exitY=0.5;exitDx=0;exitDy=0;" edge="1" parent="1" source="S53oRHzwq9ecKeJivj_x-2">
          <mxGeometry relative="1" as="geometry">
            <mxPoint x="230" y="310" as="targetPoint" />
            <Array as="points">
              <mxPoint x="230" y="244" />
            </Array>
          </mxGeometry>
        </mxCell>
        <mxCell id="S53oRHzwq9ecKeJivj_x-14" style="edgeStyle=orthogonalEdgeStyle;rounded=0;orthogonalLoop=1;jettySize=auto;html=1;exitX=0;exitY=0.5;exitDx=0;exitDy=0;entryX=0.5;entryY=0;entryDx=0;entryDy=0;" edge="1" parent="1" source="S53oRHzwq9ecKeJivj_x-2" target="S53oRHzwq9ecKeJivj_x-9">
          <mxGeometry relative="1" as="geometry" />
        </mxCell>
        <mxCell id="S53oRHzwq9ecKeJivj_x-2" value="&lt;div&gt;&lt;div&gt;&lt;font style=&quot;font-size: 14px;&quot; face=&quot;Comic Sans MS&quot;&gt;Account&lt;/font&gt;&lt;/div&gt;&lt;div&gt;&lt;font style=&quot;font-size: 14px;&quot; face=&quot;Comic Sans MS&quot;&gt;Exists?&lt;/font&gt;&lt;/div&gt;&lt;/div&gt;" style="rhombus;whiteSpace=wrap;html=1;fillColor=#FFFFCC;" vertex="1" parent="1">
          <mxGeometry x="70" y="203" width="100" height="82" as="geometry" />
        </mxCell>
        <mxCell id="S53oRHzwq9ecKeJivj_x-6" value="&lt;font style=&quot;font-size: 14px;&quot; face=&quot;Comic Sans MS&quot;&gt;No&lt;/font&gt;" style="text;html=1;align=center;verticalAlign=middle;resizable=0;points=[];autosize=1;strokeColor=none;fillColor=none;" vertex="1" parent="1">
          <mxGeometry x="30" y="210" width="40" height="30" as="geometry" />
        </mxCell>
        <mxCell id="S53oRHzwq9ecKeJivj_x-8" value="&lt;font face=&quot;Comic Sans MS&quot; style=&quot;font-size: 14px;&quot;&gt;Yes&lt;/font&gt;" style="text;html=1;align=center;verticalAlign=middle;resizable=0;points=[];autosize=1;strokeColor=none;fillColor=none;" vertex="1" parent="1">
          <mxGeometry x="180" y="210" width="50" height="30" as="geometry" />
        </mxCell>
        <mxCell id="S53oRHzwq9ecKeJivj_x-12" style="edgeStyle=orthogonalEdgeStyle;rounded=0;orthogonalLoop=1;jettySize=auto;html=1;entryX=0;entryY=0.5;entryDx=0;entryDy=0;exitX=0;exitY=0.5;exitDx=0;exitDy=0;" edge="1" parent="1" source="S53oRHzwq9ecKeJivj_x-9" target="S53oRHzwq9ecKeJivj_x-10">
          <mxGeometry relative="1" as="geometry">
            <Array as="points">
              <mxPoint x="-40" y="320" />
              <mxPoint x="-40" y="110" />
            </Array>
          </mxGeometry>
        </mxCell>
        <mxCell id="S53oRHzwq9ecKeJivj_x-9" value="&lt;font face=&quot;Comic Sans MS&quot;&gt;&lt;span style=&quot;font-size: 14px;&quot;&gt;Register&lt;/span&gt;&lt;/font&gt;" style="shape=parallelogram;perimeter=parallelogramPerimeter;whiteSpace=wrap;html=1;fixedSize=1;fillColor=#CCFFCC;" vertex="1" parent="1">
          <mxGeometry x="-30" y="300" width="130" height="40" as="geometry" />
        </mxCell>
        <mxCell id="S53oRHzwq9ecKeJivj_x-10" value="&lt;font face=&quot;Comic Sans MS&quot;&gt;&lt;span style=&quot;font-size: 14px;&quot;&gt;Login&lt;/span&gt;&lt;/font&gt;" style="shape=parallelogram;perimeter=parallelogramPerimeter;whiteSpace=wrap;html=1;fixedSize=1;fillColor=#CCFFCC;" vertex="1" parent="1">
          <mxGeometry x="55" y="90" width="130" height="40" as="geometry" />
        </mxCell>
        <mxCell id="S53oRHzwq9ecKeJivj_x-16" style="edgeStyle=orthogonalEdgeStyle;rounded=0;orthogonalLoop=1;jettySize=auto;html=1;entryX=0.5;entryY=0;entryDx=0;entryDy=0;" edge="1" parent="1" source="S53oRHzwq9ecKeJivj_x-15" target="S53oRHzwq9ecKeJivj_x-17">
          <mxGeometry relative="1" as="geometry">
            <mxPoint x="120" y="440" as="targetPoint" />
            <Array as="points">
              <mxPoint x="45" y="356" />
            </Array>
          </mxGeometry>
        </mxCell>
        <mxCell id="S53oRHzwq9ecKeJivj_x-21" style="edgeStyle=orthogonalEdgeStyle;rounded=0;orthogonalLoop=1;jettySize=auto;html=1;" edge="1" parent="1" source="S53oRHzwq9ecKeJivj_x-15">
          <mxGeometry relative="1" as="geometry">
            <mxPoint x="380" y="440" as="targetPoint" />
          </mxGeometry>
        </mxCell>
        <mxCell id="S53oRHzwq9ecKeJivj_x-15" value="&lt;font face=&quot;Comic Sans MS&quot;&gt;&lt;span style=&quot;font-size: 14px;&quot;&gt;Email&lt;/span&gt;&lt;/font&gt;&lt;div&gt;&lt;font face=&quot;Comic Sans MS&quot;&gt;&lt;span style=&quot;font-size: 14px;&quot;&gt;Verified?&lt;/span&gt;&lt;/font&gt;&lt;/div&gt;" style="rhombus;whiteSpace=wrap;html=1;fillColor=#FFFFCC;" vertex="1" parent="1">
          <mxGeometry x="170" y="310" width="120" height="92" as="geometry" />
        </mxCell>
        <mxCell id="S53oRHzwq9ecKeJivj_x-18" style="edgeStyle=orthogonalEdgeStyle;rounded=0;orthogonalLoop=1;jettySize=auto;html=1;entryX=0;entryY=0.5;entryDx=0;entryDy=0;" edge="1" parent="1" source="S53oRHzwq9ecKeJivj_x-17" target="S53oRHzwq9ecKeJivj_x-10">
          <mxGeometry relative="1" as="geometry">
            <Array as="points">
              <mxPoint x="-60" y="460" />
              <mxPoint x="-60" y="110" />
            </Array>
          </mxGeometry>
        </mxCell>
        <mxCell id="S53oRHzwq9ecKeJivj_x-17" value="&lt;font face=&quot;Comic Sans MS&quot;&gt;&lt;span style=&quot;font-size: 14px;&quot;&gt;Check email inbox&lt;/span&gt;&lt;/font&gt;" style="shape=parallelogram;perimeter=parallelogramPerimeter;whiteSpace=wrap;html=1;fixedSize=1;fillColor=#CCFFCC;" vertex="1" parent="1">
          <mxGeometry x="-30" y="440" width="150" height="40" as="geometry" />
        </mxCell>
        <mxCell id="S53oRHzwq9ecKeJivj_x-19" value="&lt;font style=&quot;font-size: 14px;&quot; face=&quot;Comic Sans MS&quot;&gt;No&lt;/font&gt;" style="text;html=1;align=center;verticalAlign=middle;resizable=0;points=[];autosize=1;strokeColor=none;fillColor=none;" vertex="1" parent="1">
          <mxGeometry x="130" y="325" width="40" height="30" as="geometry" />
        </mxCell>
        <mxCell id="S53oRHzwq9ecKeJivj_x-20" value="&lt;font face=&quot;Comic Sans MS&quot; style=&quot;font-size: 14px;&quot;&gt;Yes&lt;/font&gt;" style="text;html=1;align=center;verticalAlign=middle;resizable=0;points=[];autosize=1;strokeColor=none;fillColor=none;" vertex="1" parent="1">
          <mxGeometry x="300" y="325" width="50" height="30" as="geometry" />
        </mxCell>
        <mxCell id="S53oRHzwq9ecKeJivj_x-23" style="edgeStyle=orthogonalEdgeStyle;rounded=0;orthogonalLoop=1;jettySize=auto;html=1;entryX=0;entryY=0.5;entryDx=0;entryDy=0;" edge="1" parent="1" source="S53oRHzwq9ecKeJivj_x-22" target="S53oRHzwq9ecKeJivj_x-24">
          <mxGeometry relative="1" as="geometry">
            <mxPoint x="200" y="560" as="targetPoint" />
            <Array as="points">
              <mxPoint x="480" y="460" />
              <mxPoint x="480" y="305" />
            </Array>
          </mxGeometry>
        </mxCell>
        <mxCell id="S53oRHzwq9ecKeJivj_x-25" style="edgeStyle=orthogonalEdgeStyle;rounded=0;orthogonalLoop=1;jettySize=auto;html=1;entryX=0;entryY=0.5;entryDx=0;entryDy=0;" edge="1" parent="1" source="S53oRHzwq9ecKeJivj_x-22" target="S53oRHzwq9ecKeJivj_x-26">
          <mxGeometry relative="1" as="geometry">
            <mxPoint x="280" y="570" as="targetPoint" />
            <Array as="points">
              <mxPoint x="480" y="460" />
              <mxPoint x="480" y="382" />
            </Array>
          </mxGeometry>
        </mxCell>
        <mxCell id="S53oRHzwq9ecKeJivj_x-28" style="edgeStyle=orthogonalEdgeStyle;rounded=0;orthogonalLoop=1;jettySize=auto;html=1;entryX=0;entryY=0.5;entryDx=0;entryDy=0;" edge="1" parent="1" source="S53oRHzwq9ecKeJivj_x-22" target="S53oRHzwq9ecKeJivj_x-27">
          <mxGeometry relative="1" as="geometry" />
        </mxCell>
        <mxCell id="S53oRHzwq9ecKeJivj_x-43" style="edgeStyle=orthogonalEdgeStyle;rounded=0;orthogonalLoop=1;jettySize=auto;html=1;entryX=0.5;entryY=0;entryDx=0;entryDy=0;" edge="1" parent="1" source="S53oRHzwq9ecKeJivj_x-22" target="S53oRHzwq9ecKeJivj_x-42">
          <mxGeometry relative="1" as="geometry">
            <Array as="points">
              <mxPoint x="375" y="500" />
              <mxPoint x="35" y="500" />
            </Array>
          </mxGeometry>
        </mxCell>
        <mxCell id="S53oRHzwq9ecKeJivj_x-59" style="edgeStyle=orthogonalEdgeStyle;rounded=0;orthogonalLoop=1;jettySize=auto;html=1;entryX=0.5;entryY=1;entryDx=0;entryDy=0;" edge="1" parent="1" source="S53oRHzwq9ecKeJivj_x-22" target="S53oRHzwq9ecKeJivj_x-30">
          <mxGeometry relative="1" as="geometry">
            <Array as="points">
              <mxPoint x="480" y="460" />
            </Array>
          </mxGeometry>
        </mxCell>
        <mxCell id="S53oRHzwq9ecKeJivj_x-70" style="edgeStyle=orthogonalEdgeStyle;rounded=0;orthogonalLoop=1;jettySize=auto;html=1;entryX=0.5;entryY=0;entryDx=0;entryDy=0;" edge="1" parent="1" source="S53oRHzwq9ecKeJivj_x-22" target="S53oRHzwq9ecKeJivj_x-71">
          <mxGeometry relative="1" as="geometry">
            <mxPoint x="480" y="560" as="targetPoint" />
            <Array as="points">
              <mxPoint x="480" y="460" />
            </Array>
          </mxGeometry>
        </mxCell>
        <mxCell id="S53oRHzwq9ecKeJivj_x-22" value="&lt;font face=&quot;Comic Sans MS&quot;&gt;&lt;span style=&quot;font-size: 14px;&quot;&gt;Home&amp;nbsp;&lt;/span&gt;&lt;/font&gt;" style="shape=parallelogram;perimeter=parallelogramPerimeter;whiteSpace=wrap;html=1;fixedSize=1;fillColor=#CCFFCC;" vertex="1" parent="1">
          <mxGeometry x="310" y="440" width="130" height="40" as="geometry" />
        </mxCell>
        <mxCell id="S53oRHzwq9ecKeJivj_x-24" value="&lt;font face=&quot;Comic Sans MS&quot;&gt;&lt;span style=&quot;font-size: 14px;&quot;&gt;Help&amp;nbsp;&lt;/span&gt;&lt;/font&gt;" style="shape=parallelogram;perimeter=parallelogramPerimeter;whiteSpace=wrap;html=1;fixedSize=1;fillColor=#CCFFCC;" vertex="1" parent="1">
          <mxGeometry x="540" y="285" width="130" height="40" as="geometry" />
        </mxCell>
        <mxCell id="S53oRHzwq9ecKeJivj_x-105" style="edgeStyle=orthogonalEdgeStyle;rounded=0;orthogonalLoop=1;jettySize=auto;html=1;exitX=1;exitY=0.5;exitDx=0;exitDy=0;entryX=0;entryY=0.5;entryDx=0;entryDy=0;" edge="1" parent="1" source="S53oRHzwq9ecKeJivj_x-26" target="S53oRHzwq9ecKeJivj_x-106">
          <mxGeometry relative="1" as="geometry">
            <mxPoint x="720" y="382" as="targetPoint" />
          </mxGeometry>
        </mxCell>
        <mxCell id="S53oRHzwq9ecKeJivj_x-26" value="&lt;font face=&quot;Comic Sans MS&quot;&gt;&lt;span style=&quot;font-size: 14px;&quot;&gt;Settings&amp;nbsp;&lt;/span&gt;&lt;/font&gt;" style="shape=parallelogram;perimeter=parallelogramPerimeter;whiteSpace=wrap;html=1;fixedSize=1;fillColor=#CCFFCC;" vertex="1" parent="1">
          <mxGeometry x="540" y="362" width="130" height="40" as="geometry" />
        </mxCell>
        <mxCell id="S53oRHzwq9ecKeJivj_x-27" value="&lt;font face=&quot;Comic Sans MS&quot;&gt;&lt;span style=&quot;font-size: 14px;&quot;&gt;Economic&amp;nbsp;&lt;/span&gt;&lt;/font&gt;&lt;div&gt;&lt;font face=&quot;Comic Sans MS&quot;&gt;&lt;span style=&quot;font-size: 14px;&quot;&gt;Calendar&amp;nbsp;&lt;/span&gt;&lt;/font&gt;&lt;/div&gt;" style="shape=parallelogram;perimeter=parallelogramPerimeter;whiteSpace=wrap;html=1;fixedSize=1;fillColor=#CCFFCC;" vertex="1" parent="1">
          <mxGeometry x="540" y="440" width="130" height="40" as="geometry" />
        </mxCell>
        <mxCell id="S53oRHzwq9ecKeJivj_x-60" style="edgeStyle=orthogonalEdgeStyle;rounded=0;orthogonalLoop=1;jettySize=auto;html=1;entryX=0.5;entryY=0;entryDx=0;entryDy=0;" edge="1" parent="1" source="S53oRHzwq9ecKeJivj_x-30" target="S53oRHzwq9ecKeJivj_x-36">
          <mxGeometry relative="1" as="geometry">
            <Array as="points">
              <mxPoint x="365" y="127" />
            </Array>
          </mxGeometry>
        </mxCell>
        <mxCell id="S53oRHzwq9ecKeJivj_x-114" style="edgeStyle=orthogonalEdgeStyle;rounded=0;orthogonalLoop=1;jettySize=auto;html=1;entryX=0.535;entryY=-0.06;entryDx=0;entryDy=0;entryPerimeter=0;" edge="1" parent="1" source="S53oRHzwq9ecKeJivj_x-30" target="S53oRHzwq9ecKeJivj_x-35">
          <mxGeometry relative="1" as="geometry">
            <mxPoint x="610" y="127" as="targetPoint" />
            <Array as="points">
              <mxPoint x="610" y="127" />
            </Array>
          </mxGeometry>
        </mxCell>
        <mxCell id="S53oRHzwq9ecKeJivj_x-30" value="&lt;font style=&quot;font-size: 14px;&quot; face=&quot;Comic Sans MS&quot;&gt;Any&lt;/font&gt;&lt;span style=&quot;font-size: 14px; font-family: &amp;quot;Comic Sans MS&amp;quot;; background-color: transparent; color: light-dark(rgb(0, 0, 0), rgb(255, 255, 255));&quot;&gt;Trading&lt;/span&gt;&lt;div&gt;&lt;div&gt;&lt;font style=&quot;font-size: 14px;&quot; face=&quot;Comic Sans MS&quot;&gt;Accounts?&lt;/font&gt;&lt;/div&gt;&lt;/div&gt;" style="rhombus;whiteSpace=wrap;html=1;fillColor=#FFFFCC;" vertex="1" parent="1">
          <mxGeometry x="420" y="81" width="120" height="92" as="geometry" />
        </mxCell>
        <mxCell id="S53oRHzwq9ecKeJivj_x-33" value="&lt;font style=&quot;font-size: 14px;&quot; face=&quot;Comic Sans MS&quot;&gt;No&lt;/font&gt;" style="text;html=1;align=center;verticalAlign=middle;resizable=0;points=[];autosize=1;strokeColor=none;fillColor=none;" vertex="1" parent="1">
          <mxGeometry x="390" y="90" width="40" height="30" as="geometry" />
        </mxCell>
        <mxCell id="S53oRHzwq9ecKeJivj_x-34" value="&lt;font face=&quot;Comic Sans MS&quot; style=&quot;font-size: 14px;&quot;&gt;Yes&lt;/font&gt;" style="text;html=1;align=center;verticalAlign=middle;resizable=0;points=[];autosize=1;strokeColor=none;fillColor=none;" vertex="1" parent="1">
          <mxGeometry x="530" y="90" width="50" height="30" as="geometry" />
        </mxCell>
        <mxCell id="S53oRHzwq9ecKeJivj_x-35" value="&lt;font face=&quot;Comic Sans MS&quot;&gt;&lt;span style=&quot;font-size: 14px;&quot;&gt;View Trading&amp;nbsp;&lt;/span&gt;&lt;/font&gt;&lt;div&gt;&lt;font face=&quot;Comic Sans MS&quot;&gt;&lt;span style=&quot;font-size: 14px;&quot;&gt;Accounts&amp;nbsp;&lt;/span&gt;&lt;/font&gt;&lt;/div&gt;" style="shape=parallelogram;perimeter=parallelogramPerimeter;whiteSpace=wrap;html=1;fixedSize=1;fillColor=#CCFFCC;" vertex="1" parent="1">
          <mxGeometry x="540" y="180" width="130" height="40" as="geometry" />
        </mxCell>
        <mxCell id="S53oRHzwq9ecKeJivj_x-36" value="&lt;font face=&quot;Comic Sans MS&quot;&gt;&lt;span style=&quot;font-size: 14px;&quot;&gt;Add Trading&lt;/span&gt;&lt;/font&gt;&lt;div&gt;&lt;font face=&quot;Comic Sans MS&quot;&gt;&lt;span style=&quot;font-size: 14px;&quot;&gt;Account&amp;nbsp;&lt;/span&gt;&lt;/font&gt;&lt;/div&gt;" style="shape=parallelogram;perimeter=parallelogramPerimeter;whiteSpace=wrap;html=1;fixedSize=1;fillColor=#CCFFCC;" vertex="1" parent="1">
          <mxGeometry x="300" y="180" width="130" height="40" as="geometry" />
        </mxCell>
        <mxCell id="S53oRHzwq9ecKeJivj_x-41" style="edgeStyle=orthogonalEdgeStyle;rounded=0;orthogonalLoop=1;jettySize=auto;html=1;exitX=0.5;exitY=1;exitDx=0;exitDy=0;entryX=0.5;entryY=0;entryDx=0;entryDy=0;" edge="1" parent="1" source="S53oRHzwq9ecKeJivj_x-39" target="S53oRHzwq9ecKeJivj_x-10">
          <mxGeometry relative="1" as="geometry" />
        </mxCell>
        <mxCell id="S53oRHzwq9ecKeJivj_x-39" value="&lt;font face=&quot;Comic Sans MS&quot; style=&quot;font-size: 14px;&quot;&gt;Start&lt;/font&gt;" style="whiteSpace=wrap;html=1;fillColor=#74FF5F;" vertex="1" parent="1">
          <mxGeometry x="85" y="35" width="75" height="30" as="geometry" />
        </mxCell>
        <mxCell id="S53oRHzwq9ecKeJivj_x-46" style="edgeStyle=orthogonalEdgeStyle;rounded=0;orthogonalLoop=1;jettySize=auto;html=1;entryX=0.5;entryY=0;entryDx=0;entryDy=0;" edge="1" parent="1" source="S53oRHzwq9ecKeJivj_x-42" target="S53oRHzwq9ecKeJivj_x-48">
          <mxGeometry relative="1" as="geometry">
            <mxPoint x="160" y="660" as="targetPoint" />
            <Array as="points">
              <mxPoint x="120" y="576" />
            </Array>
          </mxGeometry>
        </mxCell>
        <mxCell id="S53oRHzwq9ecKeJivj_x-52" style="edgeStyle=orthogonalEdgeStyle;rounded=0;orthogonalLoop=1;jettySize=auto;html=1;entryX=0.5;entryY=0;entryDx=0;entryDy=0;" edge="1" parent="1" source="S53oRHzwq9ecKeJivj_x-42" target="S53oRHzwq9ecKeJivj_x-53">
          <mxGeometry relative="1" as="geometry">
            <mxPoint x="-120" y="650" as="targetPoint" />
          </mxGeometry>
        </mxCell>
        <mxCell id="S53oRHzwq9ecKeJivj_x-62" style="edgeStyle=orthogonalEdgeStyle;rounded=0;orthogonalLoop=1;jettySize=auto;html=1;entryX=0;entryY=0.5;entryDx=0;entryDy=0;" edge="1" parent="1" source="S53oRHzwq9ecKeJivj_x-42" target="S53oRHzwq9ecKeJivj_x-63">
          <mxGeometry relative="1" as="geometry">
            <mxPoint x="270" y="576" as="targetPoint" />
          </mxGeometry>
        </mxCell>
        <mxCell id="S53oRHzwq9ecKeJivj_x-42" value="&lt;font style=&quot;font-size: 14px;&quot; face=&quot;Comic Sans MS&quot;&gt;Any&lt;/font&gt;&lt;span style=&quot;font-size: 14px; font-family: &amp;quot;Comic Sans MS&amp;quot;; background-color: transparent; color: light-dark(rgb(0, 0, 0), rgb(255, 255, 255));&quot;&gt;Trades&lt;/span&gt;&lt;div&gt;&lt;div&gt;&lt;font style=&quot;font-size: 14px;&quot; face=&quot;Comic Sans MS&quot;&gt;Added?&lt;/font&gt;&lt;/div&gt;&lt;/div&gt;" style="rhombus;whiteSpace=wrap;html=1;fillColor=#FFFFCC;" vertex="1" parent="1">
          <mxGeometry x="-25" y="530" width="120" height="92" as="geometry" />
        </mxCell>
        <mxCell id="S53oRHzwq9ecKeJivj_x-44" value="&lt;font style=&quot;font-size: 14px;&quot; face=&quot;Comic Sans MS&quot;&gt;No&lt;/font&gt;" style="text;html=1;align=center;verticalAlign=middle;resizable=0;points=[];autosize=1;strokeColor=none;fillColor=none;" vertex="1" parent="1">
          <mxGeometry x="-80" y="540" width="40" height="30" as="geometry" />
        </mxCell>
        <mxCell id="S53oRHzwq9ecKeJivj_x-45" value="&lt;font face=&quot;Comic Sans MS&quot; style=&quot;font-size: 14px;&quot;&gt;Yes&lt;/font&gt;" style="text;html=1;align=center;verticalAlign=middle;resizable=0;points=[];autosize=1;strokeColor=none;fillColor=none;" vertex="1" parent="1">
          <mxGeometry x="100" y="540" width="50" height="30" as="geometry" />
        </mxCell>
        <mxCell id="S53oRHzwq9ecKeJivj_x-55" style="edgeStyle=orthogonalEdgeStyle;rounded=0;orthogonalLoop=1;jettySize=auto;html=1;entryX=0.5;entryY=0;entryDx=0;entryDy=0;exitX=0.838;exitY=-0.1;exitDx=0;exitDy=0;exitPerimeter=0;" edge="1" parent="1" target="S53oRHzwq9ecKeJivj_x-56">
          <mxGeometry relative="1" as="geometry">
            <mxPoint x="-2.5" y="772" as="targetPoint" />
            <mxPoint x="61.01999999999998" y="687" as="sourcePoint" />
            <Array as="points">
              <mxPoint x="-2" y="687" />
              <mxPoint x="-2" y="720" />
            </Array>
          </mxGeometry>
        </mxCell>
        <mxCell id="S53oRHzwq9ecKeJivj_x-66" style="edgeStyle=orthogonalEdgeStyle;rounded=0;orthogonalLoop=1;jettySize=auto;html=1;entryX=0.5;entryY=0;entryDx=0;entryDy=0;exitX=1;exitY=0.5;exitDx=0;exitDy=0;" edge="1" parent="1" source="S53oRHzwq9ecKeJivj_x-48" target="S53oRHzwq9ecKeJivj_x-68">
          <mxGeometry relative="1" as="geometry">
            <mxPoint x="240" y="740" as="targetPoint" />
          </mxGeometry>
        </mxCell>
        <mxCell id="S53oRHzwq9ecKeJivj_x-48" value="&lt;font style=&quot;font-size: 14px;&quot; face=&quot;Comic Sans MS&quot;&gt;Any&lt;/font&gt;&lt;div&gt;&lt;span style=&quot;font-size: 14px; font-family: &amp;quot;Comic Sans MS&amp;quot;; background-color: transparent; color: light-dark(rgb(0, 0, 0), rgb(255, 255, 255));&quot;&gt;Statistics&lt;/span&gt;&lt;div&gt;&lt;div&gt;&lt;font style=&quot;font-size: 14px;&quot; face=&quot;Comic Sans MS&quot;&gt;Created?&lt;/font&gt;&lt;/div&gt;&lt;/div&gt;&lt;/div&gt;" style="rhombus;whiteSpace=wrap;html=1;fillColor=#FFFFCC;" vertex="1" parent="1">
          <mxGeometry x="60" y="640" width="120" height="92" as="geometry" />
        </mxCell>
        <mxCell id="S53oRHzwq9ecKeJivj_x-50" value="&lt;font face=&quot;Comic Sans MS&quot; style=&quot;font-size: 14px;&quot;&gt;Yes&lt;/font&gt;" style="text;html=1;align=center;verticalAlign=middle;resizable=0;points=[];autosize=1;strokeColor=none;fillColor=none;" vertex="1" parent="1">
          <mxGeometry x="190" y="651" width="50" height="30" as="geometry" />
        </mxCell>
        <mxCell id="S53oRHzwq9ecKeJivj_x-53" value="&lt;font face=&quot;Comic Sans MS&quot;&gt;&lt;span style=&quot;font-size: 14px;&quot;&gt;Add Trade&amp;nbsp;&lt;/span&gt;&lt;/font&gt;" style="shape=parallelogram;perimeter=parallelogramPerimeter;whiteSpace=wrap;html=1;fixedSize=1;fillColor=#CCFFCC;" vertex="1" parent="1">
          <mxGeometry x="-190" y="646" width="140" height="40" as="geometry" />
        </mxCell>
        <mxCell id="S53oRHzwq9ecKeJivj_x-56" value="&lt;font face=&quot;Comic Sans MS&quot;&gt;&lt;span style=&quot;font-size: 14px;&quot;&gt;Create New Statistic&amp;nbsp;&lt;/span&gt;&lt;/font&gt;" style="shape=parallelogram;perimeter=parallelogramPerimeter;whiteSpace=wrap;html=1;fixedSize=1;fillColor=#CCFFCC;" vertex="1" parent="1">
          <mxGeometry x="-72.5" y="740" width="140" height="40" as="geometry" />
        </mxCell>
        <mxCell id="S53oRHzwq9ecKeJivj_x-63" value="&lt;font face=&quot;Comic Sans MS&quot;&gt;&lt;span style=&quot;font-size: 14px;&quot;&gt;Create New Statistic&amp;nbsp;&lt;/span&gt;&lt;/font&gt;" style="shape=parallelogram;perimeter=parallelogramPerimeter;whiteSpace=wrap;html=1;fixedSize=1;fillColor=#CCFFCC;" vertex="1" parent="1">
          <mxGeometry x="160" y="556" width="140" height="40" as="geometry" />
        </mxCell>
        <mxCell id="S53oRHzwq9ecKeJivj_x-65" value="&lt;font style=&quot;font-size: 14px;&quot; face=&quot;Comic Sans MS&quot;&gt;No&lt;/font&gt;" style="text;html=1;align=center;verticalAlign=middle;resizable=0;points=[];autosize=1;strokeColor=none;fillColor=none;" vertex="1" parent="1">
          <mxGeometry x="20" y="651" width="40" height="30" as="geometry" />
        </mxCell>
        <mxCell id="S53oRHzwq9ecKeJivj_x-68" value="&lt;font face=&quot;Comic Sans MS&quot;&gt;&lt;span style=&quot;font-size: 14px;&quot;&gt;View&amp;nbsp;&lt;/span&gt;&lt;/font&gt;&lt;div&gt;&lt;font face=&quot;Comic Sans MS&quot;&gt;&lt;span style=&quot;font-size: 14px;&quot;&gt;Statistics&amp;nbsp;&lt;/span&gt;&lt;/font&gt;&lt;/div&gt;" style="shape=parallelogram;perimeter=parallelogramPerimeter;whiteSpace=wrap;html=1;fixedSize=1;fillColor=#CCFFCC;" vertex="1" parent="1">
          <mxGeometry x="170" y="740" width="140" height="40" as="geometry" />
        </mxCell>
        <mxCell id="S53oRHzwq9ecKeJivj_x-72" style="edgeStyle=orthogonalEdgeStyle;rounded=0;orthogonalLoop=1;jettySize=auto;html=1;entryX=0.5;entryY=0;entryDx=0;entryDy=0;" edge="1" parent="1" source="S53oRHzwq9ecKeJivj_x-71" target="S53oRHzwq9ecKeJivj_x-73">
          <mxGeometry relative="1" as="geometry">
            <mxPoint x="480" y="650" as="targetPoint" />
          </mxGeometry>
        </mxCell>
        <mxCell id="S53oRHzwq9ecKeJivj_x-71" value="&lt;font face=&quot;Comic Sans MS&quot;&gt;&lt;span style=&quot;font-size: 14px;&quot;&gt;New Backtesting Session&amp;nbsp;&lt;/span&gt;&lt;/font&gt;" style="shape=parallelogram;perimeter=parallelogramPerimeter;whiteSpace=wrap;html=1;fixedSize=1;fillColor=#CCFFCC;" vertex="1" parent="1">
          <mxGeometry x="405" y="556" width="150" height="40" as="geometry" />
        </mxCell>
        <mxCell id="S53oRHzwq9ecKeJivj_x-75" style="edgeStyle=orthogonalEdgeStyle;rounded=0;orthogonalLoop=1;jettySize=auto;html=1;entryX=0.5;entryY=0;entryDx=0;entryDy=0;" edge="1" parent="1" source="S53oRHzwq9ecKeJivj_x-73" target="S53oRHzwq9ecKeJivj_x-76">
          <mxGeometry relative="1" as="geometry">
            <mxPoint x="480" y="730" as="targetPoint" />
          </mxGeometry>
        </mxCell>
        <mxCell id="S53oRHzwq9ecKeJivj_x-73" value="&lt;font face=&quot;Comic Sans MS&quot;&gt;&lt;span style=&quot;font-size: 14px;&quot;&gt;Select Parameters&amp;nbsp;&lt;/span&gt;&lt;/font&gt;&lt;div&gt;&lt;font face=&quot;Comic Sans MS&quot;&gt;&lt;span style=&quot;font-size: 14px;&quot;&gt;toLoading Chart&lt;/span&gt;&lt;/font&gt;&lt;/div&gt;" style="shape=parallelogram;perimeter=parallelogramPerimeter;whiteSpace=wrap;html=1;fixedSize=1;fillColor=#CCFFCC;" vertex="1" parent="1">
          <mxGeometry x="397.5" y="646" width="165" height="40" as="geometry" />
        </mxCell>
        <mxCell id="S53oRHzwq9ecKeJivj_x-81" style="edgeStyle=orthogonalEdgeStyle;rounded=0;orthogonalLoop=1;jettySize=auto;html=1;exitX=1;exitY=0.5;exitDx=0;exitDy=0;" edge="1" parent="1" source="S53oRHzwq9ecKeJivj_x-76" target="S53oRHzwq9ecKeJivj_x-79">
          <mxGeometry relative="1" as="geometry">
            <Array as="points">
              <mxPoint x="620" y="770" />
              <mxPoint x="620" y="770" />
            </Array>
          </mxGeometry>
        </mxCell>
        <mxCell id="S53oRHzwq9ecKeJivj_x-76" value="&lt;div&gt;&lt;font face=&quot;Comic Sans MS&quot;&gt;&lt;span style=&quot;font-size: 14px;&quot;&gt;Load Chart&lt;/span&gt;&lt;/font&gt;&lt;/div&gt;" style="shape=parallelogram;perimeter=parallelogramPerimeter;whiteSpace=wrap;html=1;fixedSize=1;fillColor=#CCFFCC;" vertex="1" parent="1">
          <mxGeometry x="397.5" y="750" width="165" height="40" as="geometry" />
        </mxCell>
        <mxCell id="S53oRHzwq9ecKeJivj_x-78" style="edgeStyle=orthogonalEdgeStyle;rounded=0;orthogonalLoop=1;jettySize=auto;html=1;entryX=0.5;entryY=0;entryDx=0;entryDy=0;" edge="1" parent="1" source="S53oRHzwq9ecKeJivj_x-79" target="S53oRHzwq9ecKeJivj_x-80">
          <mxGeometry relative="1" as="geometry">
            <mxPoint x="722.5" y="815" as="targetPoint" />
          </mxGeometry>
        </mxCell>
        <mxCell id="S53oRHzwq9ecKeJivj_x-93" style="edgeStyle=orthogonalEdgeStyle;rounded=0;orthogonalLoop=1;jettySize=auto;html=1;entryX=0.5;entryY=1;entryDx=0;entryDy=0;" edge="1" parent="1" source="S53oRHzwq9ecKeJivj_x-79" target="S53oRHzwq9ecKeJivj_x-90">
          <mxGeometry relative="1" as="geometry" />
        </mxCell>
        <mxCell id="S53oRHzwq9ecKeJivj_x-79" value="&lt;font face=&quot;Comic Sans MS&quot;&gt;&lt;span style=&quot;font-size: 14px;&quot;&gt;Select Parameters&amp;nbsp;&lt;/span&gt;&lt;/font&gt;&lt;div&gt;&lt;font face=&quot;Comic Sans MS&quot;&gt;&lt;span style=&quot;font-size: 14px;&quot;&gt;for Backtesting&amp;nbsp;&lt;/span&gt;&lt;/font&gt;&lt;/div&gt;" style="shape=parallelogram;perimeter=parallelogramPerimeter;whiteSpace=wrap;html=1;fixedSize=1;fillColor=#CCFFCC;" vertex="1" parent="1">
          <mxGeometry x="640" y="740" width="165" height="40" as="geometry" />
        </mxCell>
        <mxCell id="S53oRHzwq9ecKeJivj_x-82" style="edgeStyle=orthogonalEdgeStyle;rounded=0;orthogonalLoop=1;jettySize=auto;html=1;entryX=0.5;entryY=0;entryDx=0;entryDy=0;" edge="1" parent="1" source="S53oRHzwq9ecKeJivj_x-80" target="S53oRHzwq9ecKeJivj_x-83">
          <mxGeometry relative="1" as="geometry">
            <mxPoint x="722.5" y="920" as="targetPoint" />
          </mxGeometry>
        </mxCell>
        <mxCell id="S53oRHzwq9ecKeJivj_x-80" value="&lt;div&gt;&lt;font face=&quot;Comic Sans MS&quot;&gt;&lt;span style=&quot;font-size: 14px;&quot;&gt;Run Backtest&lt;/span&gt;&lt;/font&gt;&lt;/div&gt;" style="shape=parallelogram;perimeter=parallelogramPerimeter;whiteSpace=wrap;html=1;fixedSize=1;fillColor=#CCFFCC;" vertex="1" parent="1">
          <mxGeometry x="640" y="840" width="165" height="40" as="geometry" />
        </mxCell>
        <mxCell id="S53oRHzwq9ecKeJivj_x-88" style="edgeStyle=orthogonalEdgeStyle;rounded=0;orthogonalLoop=1;jettySize=auto;html=1;entryX=1;entryY=0.5;entryDx=0;entryDy=0;" edge="1" parent="1" source="S53oRHzwq9ecKeJivj_x-83" target="S53oRHzwq9ecKeJivj_x-87">
          <mxGeometry relative="1" as="geometry" />
        </mxCell>
        <mxCell id="S53oRHzwq9ecKeJivj_x-83" value="&lt;div&gt;&lt;font face=&quot;Comic Sans MS&quot;&gt;&lt;span style=&quot;font-size: 14px;&quot;&gt;View Metrics and&amp;nbsp;&lt;/span&gt;&lt;/font&gt;&lt;/div&gt;&lt;div&gt;&lt;span style=&quot;font-size: 14px; font-family: &amp;quot;Comic Sans MS&amp;quot;; background-color: transparent; color: light-dark(rgb(0, 0, 0), rgb(255, 255, 255));&quot;&gt;Trades&amp;nbsp;&lt;/span&gt;&lt;span style=&quot;font-size: 14px; font-family: &amp;quot;Comic Sans MS&amp;quot;; background-color: transparent; color: light-dark(rgb(0, 0, 0), rgb(255, 255, 255));&quot;&gt;on Chart&lt;/span&gt;&lt;/div&gt;" style="shape=parallelogram;perimeter=parallelogramPerimeter;whiteSpace=wrap;html=1;fixedSize=1;fillColor=#CCFFCC;" vertex="1" parent="1">
          <mxGeometry x="640" y="920" width="165" height="50" as="geometry" />
        </mxCell>
        <mxCell id="S53oRHzwq9ecKeJivj_x-102" style="edgeStyle=orthogonalEdgeStyle;rounded=0;orthogonalLoop=1;jettySize=auto;html=1;entryX=0;entryY=0.5;entryDx=0;entryDy=0;" edge="1" parent="1" source="S53oRHzwq9ecKeJivj_x-87" target="S53oRHzwq9ecKeJivj_x-71">
          <mxGeometry relative="1" as="geometry">
            <mxPoint x="410" y="570" as="targetPoint" />
            <Array as="points">
              <mxPoint x="350" y="930" />
              <mxPoint x="350" y="576" />
            </Array>
          </mxGeometry>
        </mxCell>
        <mxCell id="S53oRHzwq9ecKeJivj_x-111" style="edgeStyle=orthogonalEdgeStyle;rounded=0;orthogonalLoop=1;jettySize=auto;html=1;entryX=0.5;entryY=1;entryDx=0;entryDy=0;" edge="1" parent="1" source="S53oRHzwq9ecKeJivj_x-87" target="S53oRHzwq9ecKeJivj_x-103">
          <mxGeometry relative="1" as="geometry" />
        </mxCell>
        <mxCell id="S53oRHzwq9ecKeJivj_x-87" value="&lt;div&gt;&lt;font face=&quot;Comic Sans MS&quot;&gt;&lt;span style=&quot;font-size: 14px;&quot;&gt;Save&amp;nbsp;&lt;/span&gt;&lt;/font&gt;&lt;span style=&quot;font-size: 14px; font-family: &amp;quot;Comic Sans MS&amp;quot;; background-color: transparent; color: light-dark(rgb(0, 0, 0), rgb(255, 255, 255));&quot;&gt;Session and&amp;nbsp;&lt;/span&gt;&lt;/div&gt;&lt;div&gt;&lt;font face=&quot;Comic Sans MS&quot;&gt;&lt;span style=&quot;font-size: 14px;&quot;&gt;Generate Statistic&lt;/span&gt;&lt;/font&gt;&lt;/div&gt;" style="shape=parallelogram;perimeter=parallelogramPerimeter;whiteSpace=wrap;html=1;fixedSize=1;fillColor=#CCFFCC;" vertex="1" parent="1">
          <mxGeometry x="390" y="920" width="165" height="50" as="geometry" />
        </mxCell>
        <mxCell id="S53oRHzwq9ecKeJivj_x-94" style="edgeStyle=orthogonalEdgeStyle;rounded=0;orthogonalLoop=1;jettySize=auto;html=1;entryX=0.5;entryY=0;entryDx=0;entryDy=0;" edge="1" parent="1" source="S53oRHzwq9ecKeJivj_x-90" target="S53oRHzwq9ecKeJivj_x-95">
          <mxGeometry relative="1" as="geometry">
            <mxPoint x="767" y="510" as="targetPoint" />
            <Array as="points">
              <mxPoint x="850" y="600" />
            </Array>
          </mxGeometry>
        </mxCell>
        <mxCell id="S53oRHzwq9ecKeJivj_x-98" style="edgeStyle=orthogonalEdgeStyle;rounded=0;orthogonalLoop=1;jettySize=auto;html=1;exitX=0;exitY=0.5;exitDx=0;exitDy=0;" edge="1" parent="1" source="S53oRHzwq9ecKeJivj_x-90">
          <mxGeometry relative="1" as="geometry">
            <mxPoint x="658" y="750" as="targetPoint" />
            <Array as="points">
              <mxPoint x="663" y="600" />
              <mxPoint x="600" y="600" />
              <mxPoint x="600" y="750" />
              <mxPoint x="658" y="750" />
            </Array>
          </mxGeometry>
        </mxCell>
        <mxCell id="S53oRHzwq9ecKeJivj_x-90" value="&lt;font style=&quot;font-size: 14px;&quot; face=&quot;Comic Sans MS&quot;&gt;Any&amp;nbsp;&lt;/font&gt;&lt;span style=&quot;font-size: 14px; font-family: &amp;quot;Comic Sans MS&amp;quot;; background-color: transparent; color: light-dark(rgb(0, 0, 0), rgb(255, 255, 255));&quot;&gt;Private&lt;/span&gt;&lt;div&gt;&lt;div&gt;&lt;font style=&quot;font-size: 14px;&quot; face=&quot;Comic Sans MS&quot;&gt;Strategies?&lt;/font&gt;&lt;/div&gt;&lt;/div&gt;" style="rhombus;whiteSpace=wrap;html=1;fillColor=#FFFFCC;" vertex="1" parent="1">
          <mxGeometry x="662.5" y="559" width="120" height="92" as="geometry" />
        </mxCell>
        <mxCell id="S53oRHzwq9ecKeJivj_x-101" style="edgeStyle=orthogonalEdgeStyle;rounded=0;orthogonalLoop=1;jettySize=auto;html=1;entryX=1;entryY=0.5;entryDx=0;entryDy=0;" edge="1" parent="1" source="S53oRHzwq9ecKeJivj_x-95" target="S53oRHzwq9ecKeJivj_x-79">
          <mxGeometry relative="1" as="geometry">
            <Array as="points">
              <mxPoint x="850" y="760" />
            </Array>
          </mxGeometry>
        </mxCell>
        <mxCell id="S53oRHzwq9ecKeJivj_x-95" value="&lt;font face=&quot;Comic Sans MS&quot;&gt;&lt;span style=&quot;font-size: 14px;&quot;&gt;Create Private Strategy&amp;nbsp;&lt;/span&gt;&lt;/font&gt;" style="shape=parallelogram;perimeter=parallelogramPerimeter;whiteSpace=wrap;html=1;fixedSize=1;fillColor=#CCFFCC;" vertex="1" parent="1">
          <mxGeometry x="780" y="660" width="140" height="40" as="geometry" />
        </mxCell>
        <mxCell id="S53oRHzwq9ecKeJivj_x-99" value="&lt;font face=&quot;Comic Sans MS&quot; style=&quot;font-size: 14px;&quot;&gt;Yes&lt;/font&gt;" style="text;html=1;align=center;verticalAlign=middle;resizable=0;points=[];autosize=1;strokeColor=none;fillColor=none;" vertex="1" parent="1">
          <mxGeometry x="612.5" y="570" width="50" height="30" as="geometry" />
        </mxCell>
        <mxCell id="S53oRHzwq9ecKeJivj_x-100" value="&lt;font style=&quot;font-size: 14px;&quot; face=&quot;Comic Sans MS&quot;&gt;No&lt;/font&gt;" style="text;html=1;align=center;verticalAlign=middle;resizable=0;points=[];autosize=1;strokeColor=none;fillColor=none;" vertex="1" parent="1">
          <mxGeometry x="787" y="570" width="40" height="30" as="geometry" />
        </mxCell>
        <mxCell id="S53oRHzwq9ecKeJivj_x-103" value="&lt;div&gt;&lt;font face=&quot;Comic Sans MS&quot;&gt;&lt;span style=&quot;font-size: 14px;&quot;&gt;View Statistics&lt;/span&gt;&lt;/font&gt;&lt;/div&gt;" style="shape=parallelogram;perimeter=parallelogramPerimeter;whiteSpace=wrap;html=1;fixedSize=1;fillColor=#CCFFCC;" vertex="1" parent="1">
          <mxGeometry x="390" y="840" width="165" height="40" as="geometry" />
        </mxCell>
        <mxCell id="S53oRHzwq9ecKeJivj_x-106" value="&lt;font face=&quot;Comic Sans MS&quot;&gt;&lt;span style=&quot;font-size: 14px;&quot;&gt;Update User Profile or Change Password&lt;/span&gt;&lt;/font&gt;" style="shape=parallelogram;perimeter=parallelogramPerimeter;whiteSpace=wrap;html=1;fixedSize=1;fillColor=#CCFFCC;" vertex="1" parent="1">
          <mxGeometry x="732" y="362" width="188" height="40" as="geometry" />
        </mxCell>
      </root>
    </mxGraphModel>
  </diagram>
</mxfile>
